<mxfile host="app.diagrams.net" modified="2023-11-09T18:23:26.683Z" agent="Mozilla/5.0 (Windows NT 10.0; Win64; x64) AppleWebKit/537.36 (KHTML, like Gecko) Chrome/119.0.0.0 Safari/537.36" version="22.1.0" etag="t78l1yw7mY1226ZMWqjI" type="github">
  <diagram name="Page-1" id="v13kx08BSDuxDyoze_uk">
    <mxGraphModel>
      <root>
        <mxCell id="0" />
        <mxCell id="1" parent="0" />
      </root>
    </mxGraphModel>
  </diagram>
</mxfile>
